<?xml version="1.0" encoding="UTF-8" standalone="no"?>
<!-- Generator: Adobe Illustrator 24.3.0, SVG Export Plug-In . SVG Version: 6.00 Build 0)  -->

<svg
   version="1.1"
   id="Layer_1"
   x="0px"
   y="0px"
   viewBox="0 0 154 33"
   xml:space="preserve"
   sodipodi:docname="Connect with Stripe - 154x33.svg"
   width="154"
   height="33"
   inkscape:export-filename="C:\Users\GaneshMahi\Desktop\Connect with Stripe - 154x33.png"
   inkscape:export-xdpi="96"
   inkscape:export-ydpi="96"
   inkscape:version="1.1.1 (3bf5ae0d25, 2021-09-20)"
   xmlns:inkscape="http://www.inkscape.org/namespaces/inkscape"
   xmlns:sodipodi="http://sodipodi.sourceforge.net/DTD/sodipodi-0.dtd"
   xmlns="http://www.w3.org/2000/svg"
   xmlns:svg="http://www.w3.org/2000/svg"><defs
   id="defs57" /><sodipodi:namedview
   id="namedview55"
   pagecolor="#ffffff"
   bordercolor="#cccccc"
   borderopacity="1"
   inkscape:pageshadow="0"
   inkscape:pageopacity="1"
   inkscape:pagecheckerboard="0"
   showgrid="false"
   inkscape:lockguides="true"
   showguides="true"
   inkscape:guide-bbox="true"
   inkscape:zoom="9.4833334"
   inkscape:cx="77.029876"
   inkscape:cy="18.400703"
   inkscape:window-width="1920"
   inkscape:window-height="1001"
   inkscape:window-x="-9"
   inkscape:window-y="-9"
   inkscape:window-maximized="1"
   inkscape:current-layer="Layer_1"
   width="154px"><sodipodi:guide
     position="-14.657293,5.0035151"
     orientation="1,0"
     id="guide2614" /></sodipodi:namedview>
<style
   type="text/css"
   id="style34">
	.st0{fill:#635BFF;}
	.st1{fill:#FFFFFF;}
</style>








<g
   id="g368"
   transform="matrix(0.85268336,0,0,0.85268336,0.24438771,0.23913176)"><path
     class="st0"
     d="m 4,0 h 172 c 2.2,0 4,1.8 4,4 v 30 c 0,2.2 -1.8,4 -4,4 H 4 C 1.8,38 0,36.2 0,34 V 4 C 0,1.8 1.8,0 4,0 Z"
     id="path36" /><path
     class="st1"
     d="m 26.4,18.6 c 0,-2.3 1.3,-3.9 3,-3.9 1.3,0 2.2,0.8 2.5,2 l 1.8,-0.6 C 33.1,14.2 31.6,13 29.4,13 c -2.9,0 -5,2.3 -5,5.6 0,3.3 2.1,5.6 5,5.6 2.2,0 3.7,-1.2 4.3,-3.1 l -1.8,-0.6 c -0.3,1.3 -1.2,2 -2.5,2 -1.8,0 -3,-1.6 -3,-3.9 z M 42,20.1 C 42,17.7 40.4,16 38.2,16 c -2.2,0 -3.8,1.6 -3.8,4.1 0,2.5 1.6,4.1 3.8,4.1 2.3,0 3.8,-1.7 3.8,-4.1 z m -5.7,0 c 0,-1.6 0.8,-2.6 2,-2.6 1.2,0 2,1 2,2.6 0,1.6 -0.8,2.6 -2,2.6 -1.2,0 -2,-1 -2,-2.6 z m 7.1,3.9 h 1.8 v -4.6 c 0,-1.1 0.8,-1.7 1.6,-1.7 1,0 1.4,0.7 1.4,1.7 V 24 H 50 V 18.8 C 50,17.1 49,16 47.4,16 c -1,0 -1.7,0.5 -2.2,1 v -0.8 h -1.8 z m 8.5,0 h 1.8 v -4.6 c 0,-1.1 0.8,-1.7 1.6,-1.7 1,0 1.4,0.7 1.4,1.7 V 24 h 1.8 v -5.2 c 0,-1.7 -1,-2.8 -2.6,-2.8 -1,0 -1.7,0.5 -2.2,1 v -0.8 h -1.8 z m 11.8,0.2 c 1.6,0 2.8,-0.8 3.4,-2.2 l -1.5,-0.6 c -0.2,0.8 -0.9,1.3 -1.8,1.3 -1.2,0 -2,-0.8 -2.1,-2.2 h 5.5 V 19.9 C 67.2,17.7 66,16 63.7,16 c -2.2,0 -3.8,1.8 -3.8,4.1 0,2.4 1.5,4.1 3.8,4.1 z m -0.1,-6.7 c 1.1,0 1.7,0.8 1.7,1.6 h -3.6 c 0.2,-1.1 1,-1.6 1.9,-1.6 z m 6.2,2.6 c 0,-1.6 0.8,-2.5 2.1,-2.5 1,0 1.5,0.6 1.8,1.5 l 1.5,-0.8 c -0.4,-1.3 -1.6,-2.2 -3.3,-2.2 -2.2,0 -3.9,1.7 -3.9,4.1 0,2.4 1.6,4.1 3.9,4.1 1.7,0 2.9,-1 3.3,-2.3 l -1.5,-0.8 c -0.2,0.9 -0.8,1.5 -1.8,1.5 -1.3,-0.1 -2.1,-1 -2.1,-2.6 z m 6.6,1.9 c 0,1.6 0.8,2.1 2.3,2.1 0.5,0 0.9,0 1.2,-0.1 v -1.5 c -0.3,0 -0.4,0 -0.7,0 -0.6,0 -1.1,-0.1 -1.1,-0.8 v -4.1 h 1.7 v -1.5 h -1.7 v -2.3 h -1.8 v 2.3 h -1.1 v 1.5 h 1.1 z m 11.7,-5.9 -1.4,5.2 -1.4,-5.2 h -1.8 l 2.4,7.9 h 1.6 l 1.4,-5.2 1.4,5.2 h 1.6 l 2.4,-7.9 H 92.5 L 91,21.3 89.6,16.1 c 0,0 -1.5,0 -1.5,0 z m 7.1,-1 H 97 v -1.8 h -1.9 z m 1.8,1 H 95.2 V 24 H 97 Z m 2,5.9 c 0,1.6 0.8,2.1 2.3,2.1 0.5,0 0.9,0 1.2,-0.1 v -1.5 c -0.3,0 -0.4,0 -0.7,0 -0.6,0 -1.1,-0.1 -1.1,-0.8 v -4.1 h 1.7 v -1.5 h -1.7 V 13.8 H 99 v 2.3 h -1.1 v 1.5 H 99 Z m 4.9,2 h 1.8 v -4.6 c 0,-1.1 0.8,-1.7 1.6,-1.7 1,0 1.4,0.7 1.4,1.7 V 24 h 1.8 v -5.2 c 0,-1.7 -1,-2.8 -2.6,-2.8 -1,0 -1.7,0.5 -2.2,1 v -3.7 h -1.8 c 0,0 0,10.7 0,10.7 z"
     id="path38" /><path
     class="st1"
     d="m 141.5,26.4 v -3 c 0.4,0.3 0.9,0.7 1.9,0.7 1.9,0 3.6,-1.5 3.6,-4.9 0,-3.1 -1.7,-4.8 -3.6,-4.8 -1,0 -1.7,0.5 -2.1,0.9 l -0.1,-0.6 h -2.3 V 27 Z m 1.2,-9.7 c 1,0 1.6,1.1 1.6,2.5 0,1.5 -0.6,2.5 -1.6,2.5 -0.6,0 -1,-0.2 -1.3,-0.5 v -4 c 0.4,-0.2 0.7,-0.5 1.3,-0.5 z"
     id="path40" /><path
     class="st1"
     d="m 152.1,24.2 c 1.3,0 2.2,-0.3 3,-0.7 v -2.2 c -0.7,0.4 -1.5,0.6 -2.6,0.6 -1.1,0 -1.9,-0.4 -2.1,-1.7 h 5.2 c 0,-0.2 0,-0.7 0,-1 0,-2.8 -1.3,-4.9 -3.8,-4.9 -2.5,0 -4.1,2.2 -4.1,4.9 0,3.3 1.8,5 4.4,5 z m -0.3,-7.7 c 0.6,0 1.3,0.5 1.3,1.7 h -2.8 c 0.1,-1.1 0.8,-1.7 1.5,-1.7 z"
     id="path42" /><path
     class="st1"
     d="m 132,17.5 c 0.6,-0.9 1.7,-0.7 2,-0.6 v -2.5 c -0.4,-0.1 -1.6,-0.4 -2.1,0.8 l -0.2,-0.8 h -2.3 v 9.4 h 2.6 z"
     id="path44" /><path
     class="st1"
     d="m 120,21.2 c 0,0.5 -0.4,0.6 -1,0.6 -0.9,0 -2,-0.4 -2.9,-0.9 v 2.6 c 1,0.4 2,0.6 2.9,0.6 2.2,0 3.7,-1.1 3.7,-3 0,-3.2 -4,-2.6 -4,-3.8 0,-0.4 0.3,-0.6 0.9,-0.6 0.8,0 1.8,0.2 2.6,0.7 v -2.6 c -0.9,-0.4 -1.7,-0.5 -2.6,-0.5 -2.1,0 -3.6,1.1 -3.6,3 0,3.1 4,2.6 4,3.9 z"
     id="path46" /><path
     class="st1"
     d="m 126.4,24.2 c 0.8,0 1.5,-0.2 1.9,-0.4 v -2.2 c -0.3,0.1 -2,0.6 -2,-1 v -3.8 h 2 v -2.3 h -2 v -2.3 l -2.6,0.6 v 8.6 c 0,1.6 1.1,2.8 2.7,2.8 z"
     id="path48" /><path
     class="st1"
     d="m 134.9,11.6 v 2.1 l 2.7,-0.5 V 11 Z"
     id="path50" /><path
     class="st1"
     d="m 137.5,14.5 h -2.6 v 9.3 h 2.6 z"
     id="path52" /></g>
</svg>
